<?xml version="1.0" encoding="utf-8"?>
<!-- Generator: Adobe Illustrator 23.0.3, SVG Export Plug-In . SVG Version: 6.00 Build 0)  -->
<svg version="1.1" id="Layer_1" xmlns="http://www.w3.org/2000/svg" xmlns:xlink="http://www.w3.org/1999/xlink" x="0px" y="0px"
	 viewBox="0 0 1081 160" style="enable-background:new 0 0 1081 160;" xml:space="preserve">
<style type="text/css">
	.st0{fill:url(#SVGID_1_);}
	.st1{fill:url(#SVGID_2_);}
	.st2{fill:url(#SVGID_3_);}
	.st3{fill:url(#SVGID_4_);}
	.st4{fill:url(#SVGID_5_);}
	.st5{fill:url(#SVGID_6_);}
	.st6{fill:url(#SVGID_7_);}
	.st7{fill:url(#SVGID_8_);}
	.st8{fill:url(#SVGID_9_);}
	.st9{fill:url(#SVGID_10_);}
	.st10{fill:url(#SVGID_11_);}
</style>
<g>
	<linearGradient id="SVGID_1_" gradientUnits="userSpaceOnUse" x1="61.749" y1="81.418" x2="1031.9543" y2="78.3496">
		<stop  offset="0" style="stop-color:#8300E9"/>
		<stop  offset="1" style="stop-color:#0C71C3"/>
	</linearGradient>
	<path class="st0" d="M36.218,151L0.01,12h16.612l31.653,125h11.088L91.017,12h16.612L71.622,151H36.218z"/>
	<linearGradient id="SVGID_2_" gradientUnits="userSpaceOnUse" x1="63.5217" y1="80.5" x2="1029.4807" y2="80.5">
		<stop  offset="0" style="stop-color:#8300E9"/>
		<stop  offset="1" style="stop-color:#0C71C3"/>
	</linearGradient>
	<path class="st1" d="M127,28V10h15v18H127z M127,151V50h15v101H127z"/>
	<linearGradient id="SVGID_3_" gradientUnits="userSpaceOnUse" x1="64.1739" y1="99.3934" x2="1029.457" y2="99.3934">
		<stop  offset="0" style="stop-color:#8300E9"/>
		<stop  offset="1" style="stop-color:#0C71C3"/>
	</linearGradient>
	<path class="st2" d="M172,151V50h15v13.48c2.573-1.741,5.826-3.653,9.758-5.734c3.929-2.078,8.265-4.055,13.011-5.935
		c4.743-1.877,9.485-3.219,14.231-4.024v15.894c-4.609,0.94-9.285,2.182-14.027,3.722c-4.746,1.543-9.117,3.187-13.113,4.929
		c-3.999,1.744-7.287,3.288-9.86,4.627V151H172z"/>
	<linearGradient id="SVGID_4_" gradientUnits="userSpaceOnUse" x1="63.6872" y1="100.975" x2="1028.7828" y2="100.975">
		<stop  offset="0" style="stop-color:#8300E9"/>
		<stop  offset="1" style="stop-color:#0C71C3"/>
	</linearGradient>
	<path class="st3" d="M276.438,153.285c-10.598,0-18.912-1.779-24.949-5.331c-6.036-3.553-10.295-9.286-12.776-17.202
		c-2.483-7.913-3.722-18.375-3.722-31.387c0-12.204,1.374-22.031,4.124-29.475c2.747-7.444,7.208-12.842,13.38-16.196
		c6.168-3.351,14.215-5.03,24.143-5.03c2.279,0,5.061,0.17,8.35,0.503c3.285,0.336,6.671,0.739,10.16,1.207
		c3.486,0.472,6.504,0.905,9.054,1.308l-0.603,12.877c-2.283-0.267-4.898-0.535-7.847-0.805c-2.952-0.267-5.835-0.503-8.651-0.704
		c-2.817-0.201-5.165-0.302-7.042-0.302c-7.645,0-13.581,1.207-17.806,3.622c-4.225,2.414-7.177,6.272-8.852,11.569
		c-1.679,5.3-2.515,12.443-2.515,21.427c0,9.792,0.736,17.605,2.213,23.439c1.474,5.835,4.291,10.028,8.45,12.575
		c4.156,2.549,10.327,3.822,18.51,3.822c1.877,0,4.256-0.1,7.142-0.301c2.883-0.201,5.835-0.434,8.853-0.704
		c3.018-0.267,5.665-0.468,7.947-0.603l0.402,12.876c-2.685,0.402-5.769,0.805-9.255,1.207c-3.489,0.403-6.91,0.769-10.261,1.106
		C281.534,153.117,278.717,153.285,276.438,153.285z"/>
	<linearGradient id="SVGID_5_" gradientUnits="userSpaceOnUse" x1="63.1689" y1="100.975" x2="1029.9768" y2="100.975">
		<stop  offset="0" style="stop-color:#8300E9"/>
		<stop  offset="1" style="stop-color:#0C71C3"/>
	</linearGradient>
	<path class="st4" d="M347.744,154.308c-9.436,0-16.615-2.666-21.538-7.999c-4.923-5.334-7.385-13.128-7.385-23.385
		c0-6.699,1.16-12.169,3.487-16.41c2.324-4.237,5.846-7.487,10.564-9.744c4.718-2.256,10.564-3.657,17.538-4.205L382,89.488v-8.821
		c0-6.974-1.538-11.897-4.615-14.769c-3.077-2.872-7.625-4.307-13.641-4.307c-3.42,0-7.487,0.138-12.205,0.41
		c-4.718,0.276-9.404,0.615-14.051,1.026c-4.65,0.41-8.753,0.821-12.307,1.231l-0.821-12.103c3.282-0.682,7.247-1.365,11.897-2.051
		c4.647-0.683,9.503-1.263,14.564-1.744c5.058-0.477,9.709-0.718,13.949-0.718c7.795,0,14.153,1.199,19.077,3.589
		c4.923,2.394,8.513,6.019,10.769,10.872C396.872,66.959,398,73.149,398,80.668v51.897c0.273,3.01,1.468,5.199,3.59,6.564
		c2.119,1.369,4.82,2.256,8.102,2.667l-0.615,12.512c-1.917,0-3.763-0.071-5.538-0.204c-1.779-0.139-3.455-0.38-5.026-0.719
		c-1.574-0.343-3.112-0.718-4.615-1.128c-1.779-0.683-3.455-1.503-5.026-2.461c-1.574-0.955-3.112-2.119-4.615-3.487
		c-2.599,1.096-5.916,2.256-9.949,3.487c-4.035,1.23-8.343,2.291-12.923,3.18C356.802,153.863,352.256,154.308,347.744,154.308z
		 M351.016,140.208c3.622,0,7.375-0.333,11.267-1.006c3.889-0.669,7.577-1.474,11.066-2.414c3.486-0.937,6.369-1.811,8.651-2.616
		v-32.795l-29.174,2.817c-6.036,0.538-10.361,2.282-12.977,5.231c-2.616,2.952-3.923,7.177-3.923,12.675
		c0,5.634,1.273,10.06,3.823,13.279C342.296,138.599,346.052,140.208,351.016,140.208z"/>
	<linearGradient id="SVGID_6_" gradientUnits="userSpaceOnUse" x1="63.3079" y1="80.1427" x2="1030.4038" y2="80.1427">
		<stop  offset="0" style="stop-color:#8300E9"/>
		<stop  offset="1" style="stop-color:#0C71C3"/>
	</linearGradient>
	<path class="st5" d="M459.724,153.285c-4.024,0-7.847-0.436-11.468-1.307c-3.621-0.871-6.941-2.38-9.959-4.527
		c-3.018-2.144-5.668-5.131-7.947-8.953c-2.282-3.823-4.023-8.752-5.231-14.788c-1.207-6.036-1.811-13.345-1.811-21.931
		c0-11.936,1.408-21.83,4.225-29.676c2.817-7.847,7.309-13.713,13.48-17.605c6.168-3.889,14.351-5.835,24.546-5.835
		c2.547,0,5.363,0.135,8.45,0.402c3.084,0.27,6.067,0.603,8.953,1.006C485.845,50.475,491,51.28,491,51.28V7h15v144h-16v-6.365
		c-2.043,1.207-4.825,2.483-8.245,3.823c-3.42,1.342-7.042,2.483-10.865,3.42C467.068,152.814,463.346,153.285,459.724,153.285z
		 M461.833,139.202c3.486,0,7.007-0.402,10.563-1.207c3.553-0.805,6.872-1.777,9.959-2.918c3.084-1.138,5.634-2.179,7.645-3.119
		v-67.4c-1.609-0.267-3.822-0.569-6.639-0.905c-2.817-0.333-5.734-0.635-8.752-0.905c-3.018-0.267-5.734-0.402-8.148-0.402
		c-6.841,0-12.207,1.478-16.095,4.426c-3.892,2.952-6.674,7.343-8.35,13.178c-1.679,5.835-2.515,13.112-2.515,21.83
		c0,8.048,0.603,14.521,1.811,19.415c1.207,4.898,2.848,8.652,4.929,11.267c2.078,2.616,4.458,4.395,7.143,5.332
		C456.064,138.734,458.881,139.202,461.833,139.202z"/>
	<linearGradient id="SVGID_7_" gradientUnits="userSpaceOnUse" x1="63.6957" y1="80.5" x2="1030.7362" y2="80.5">
		<stop  offset="0" style="stop-color:#8300E9"/>
		<stop  offset="1" style="stop-color:#0C71C3"/>
	</linearGradient>
	<path class="st6" d="M535,28V10h15v18H535z M535,151V50h15v101H535z"/>
	<linearGradient id="SVGID_8_" gradientUnits="userSpaceOnUse" x1="63.8621" y1="100.975" x2="1029.571" y2="100.975">
		<stop  offset="0" style="stop-color:#8300E9"/>
		<stop  offset="1" style="stop-color:#0C71C3"/>
	</linearGradient>
	<path class="st7" d="M599.742,154.309c-9.436,0-16.616-2.666-21.539-7.999c-4.923-5.334-7.385-13.128-7.385-23.385
		c0-6.699,1.16-12.17,3.487-16.41c2.324-4.237,5.846-7.488,10.564-9.744c4.718-2.256,10.564-3.657,17.538-4.205L634,89.488v-8.821
		c0-6.974-1.539-11.897-4.616-14.77c-3.077-2.872-7.625-4.308-13.641-4.308c-3.42,0-7.488,0.138-12.206,0.41
		c-4.718,0.276-9.405,0.615-14.052,1.026c-4.65,0.41-8.754,0.821-12.308,1.231l-0.821-12.103c3.283-0.682,7.247-1.365,11.898-2.051
		c4.647-0.683,9.503-1.263,14.565-1.744c5.057-0.477,9.708-0.718,13.949-0.718c7.795,0,14.154,1.199,19.078,3.589
		c4.923,2.394,8.512,6.02,10.769,10.872C648.872,66.958,650,73.148,650,80.667v51.899c0.273,3.01,1.468,5.199,3.589,6.564
		c2.119,1.369,4.821,2.257,8.103,2.667l-0.616,12.513c-1.917,0-3.763-0.071-5.539-0.204c-1.779-0.139-3.455-0.38-5.026-0.719
		c-1.574-0.343-3.112-0.718-4.616-1.128c-1.779-0.683-3.455-1.503-5.025-2.461c-1.575-0.955-3.113-2.119-4.616-3.487
		c-2.599,1.096-5.917,2.257-9.949,3.487c-4.036,1.23-8.344,2.291-12.923,3.18C608.8,153.865,604.255,154.309,599.742,154.309z
		 M604.015,140.208c3.621,0,7.376-0.333,11.267-1.006c3.889-0.669,7.576-1.474,11.065-2.414c3.486-0.937,6.369-1.811,8.652-2.616
		v-32.795l-29.174,2.817c-6.035,0.538-10.362,2.282-12.977,5.231c-2.616,2.952-3.922,7.177-3.922,12.675
		c0,5.634,1.273,10.06,3.823,13.279C595.295,138.599,599.051,140.208,604.015,140.208z"/>
	<linearGradient id="SVGID_9_" gradientUnits="userSpaceOnUse" x1="63.6703" y1="81.5" x2="1030.5083" y2="81.5">
		<stop  offset="0" style="stop-color:#8300E9"/>
		<stop  offset="1" style="stop-color:#0C71C3"/>
	</linearGradient>
	<path class="st8" d="M743.805,151L715.844,12h16.691l23.35,125h5.609l28.182-124h18.922l28.183,124h5.609l23.35-125h16.691
		l-28.162,139h-29.005L797.729,26h2.814l-27.533,125H743.805z"/>
	<linearGradient id="SVGID_10_" gradientUnits="userSpaceOnUse" x1="62.7223" y1="101.3604" x2="1030.2522" y2="101.3604">
		<stop  offset="0" style="stop-color:#8300E9"/>
		<stop  offset="1" style="stop-color:#0C71C3"/>
	</linearGradient>
	<path class="st9" d="M932.526,153.671c-10.06,0-18.007-1.945-23.841-5.834c-5.835-3.889-10.029-9.658-12.575-17.303
		c-2.549-7.645-3.823-17.168-3.823-28.57c0-12.742,1.741-22.968,5.231-30.682c3.486-7.711,8.381-13.345,14.687-16.901
		c6.304-3.552,13.747-5.331,22.333-5.331c13.411,0,23.54,3.722,30.38,11.166c6.841,7.444,10.262,19.415,10.262,35.914L974.375,108
		h-66.193c0.132,10.462,2.077,18.378,5.834,23.741c3.753,5.366,10.528,8.048,20.321,8.048c3.753,0,7.878-0.101,12.373-0.302
		c4.492-0.201,8.953-0.434,13.379-0.704c4.426-0.267,8.18-0.534,11.267-0.804l0.402,12.273c-3.22,0.538-7.142,1.075-11.77,1.609
		c-4.627,0.535-9.355,0.971-14.184,1.307C940.977,153.502,936.551,153.671,932.526,153.671z M908.182,95h51.304
		c0-12.339-1.98-20.956-5.935-25.853c-3.957-4.895-10.295-7.344-19.012-7.344c-5.634,0-10.396,1.106-14.285,3.32
		c-3.892,2.213-6.876,5.734-8.954,10.563C909.219,80.514,908.182,86.952,908.182,95z"/>
	<linearGradient id="SVGID_11_" gradientUnits="userSpaceOnUse" x1="63.2174" y1="80.1343" x2="1029.5703" y2="80.1343">
		<stop  offset="0" style="stop-color:#8300E9"/>
		<stop  offset="1" style="stop-color:#0C71C3"/>
	</linearGradient>
	<path class="st10" d="M1032.667,153.269c-3.009,0-6.599-0.099-10.769-0.301c-4.173-0.202-8.378-0.503-12.615-0.905
		c-4.24-0.403-8-0.74-11.282-1.006V7h16v48.488c2.186-1.072,4.924-2.113,8.205-3.119c3.283-1.006,6.801-1.877,10.564-2.616
		c3.76-0.736,7.349-1.106,10.769-1.106c9.299,0,16.719,1.71,22.257,5.13c5.539,3.421,9.503,8.853,11.898,16.297
		c2.391,7.444,3.589,17.202,3.589,29.274c0,13.414-1.471,24.043-4.41,31.89c-2.942,7.846-7.933,13.48-14.974,16.9
		C1054.853,151.559,1045.11,153.269,1032.667,153.269z M1032.108,139.202c9.12,0,15.927-1.374,20.421-4.124
		c4.493-2.747,7.51-7.073,9.054-12.977c1.541-5.901,2.314-13.48,2.314-22.735c0-8.582-0.672-15.558-2.012-20.924
		c-1.343-5.363-3.656-9.321-6.941-11.871c-3.288-2.546-7.815-3.822-13.58-3.822c-3.22,0-6.574,0.302-10.061,0.905
		c-3.489,0.603-6.74,1.342-9.758,2.213c-3.018,0.874-5.533,1.71-7.545,2.515v69.815c2.817,0.27,6.068,0.503,9.759,0.704
		C1027.446,139.102,1030.228,139.202,1032.108,139.202z"/>
</g>
</svg>
